<svg width="137" height="183" viewBox="0 0 137 183" fill="none" xmlns="http://www.w3.org/2000/svg">
<path opacity="0.75" d="M45.6696 161.3C42.9083 161.322 40.652 159.101 40.63 156.34L39.435 6.1143C39.413 3.35297 41.6337 1.09665 44.3951 1.07469L130.392 0.390591C133.154 0.368625 135.41 2.58932 135.432 5.35066L136.627 155.576C136.649 158.337 134.428 160.594 131.667 160.616L45.6696 161.3Z" fill="#FFA800" fill-opacity="0.95"/>
<path d="M6.83792 182.609C4.07658 182.631 1.82027 180.411 1.7983 177.649L0.71849 41.9073C0.696524 39.146 2.91722 36.8897 5.67856 36.8677L100.676 36.112C103.437 36.0901 105.693 38.3108 105.715 41.0721L106.795 176.814C106.817 179.575 104.596 181.832 101.835 181.854L6.83792 182.609Z" fill="#F07C11" fill-opacity="0.8"/>
<g filter="url(#filter0_d_226_11)">
<path d="M34.9306 142.746C34.9306 146.075 34.3025 148.822 33.0463 150.988C31.8319 153.154 30.1989 154.838 28.1471 156.041C26.1372 157.284 23.7295 158.347 20.924 159.23L18.1603 152.251C20.0028 151.569 21.3846 150.787 22.3058 149.905C23.227 149.023 23.8342 148 24.1273 146.837C24.4623 145.674 24.6298 144.19 24.6298 142.385V107.372H34.9306V142.746Z" fill="#141414"/>
<path d="M105.819 65.1405C105.819 61.8117 106.447 59.0644 107.704 56.8987C108.918 54.7329 110.551 53.0485 112.603 51.8453C114.613 50.602 117.02 49.5392 119.826 48.6569L122.59 55.6353C120.747 56.3171 119.365 57.0992 118.444 57.9815C117.523 58.8639 116.916 59.8866 116.623 61.0497C116.288 62.2127 116.12 63.6967 116.12 65.5015V100.514H105.819V65.1405Z" fill="#141414"/>
<path d="M11 100.183H129.75V107.703H11V100.183Z" fill="#141414"/>
<path d="M53.75 111.388C58.3979 111.388 62.0095 112.817 64.5847 115.674C67.1913 118.532 68.4946 122.563 68.4946 127.766C68.4946 131.165 67.8979 134.098 66.7045 136.565C65.5425 139.031 63.8467 140.926 61.6169 142.25C59.4186 143.543 56.7963 144.19 53.75 144.19C50.7037 144.19 48.0814 143.543 45.8831 142.25C43.6847 140.956 41.9888 139.091 40.7955 136.655C39.6335 134.188 39.0525 131.225 39.0525 127.766C39.0525 124.397 39.6335 121.48 40.7955 119.013C41.9888 116.547 43.6847 114.667 45.8831 113.373C48.0814 112.05 50.7037 111.388 53.75 111.388ZM53.75 116.802C51.5202 116.802 49.8558 117.675 48.7566 119.419C47.6888 121.134 47.155 123.916 47.155 127.766C47.155 131.616 47.7045 134.414 48.8037 136.159C49.9029 137.903 51.5516 138.775 53.75 138.775C56.0111 138.775 57.6756 137.918 58.7434 136.204C59.8425 134.459 60.3921 131.647 60.3921 127.766C60.3921 123.886 59.8425 121.089 58.7434 119.374C57.6442 117.66 55.9797 116.802 53.75 116.802Z" fill="black"/>
<path d="M89.8644 143.423L88.1686 136.7H78.6529L77.0041 143.423H68.9958L78.8413 112.155H88.2157L98.0611 143.423H89.8644ZM79.9719 131.331H86.8495L83.4107 117.524L79.9719 131.331Z" fill="black"/>
<path d="M113.186 111.388C117.834 111.388 121.446 112.817 124.021 115.674C126.628 118.532 127.931 122.563 127.931 127.766C127.931 131.165 127.334 134.098 126.141 136.565C124.979 139.031 123.283 140.926 121.053 142.25C118.855 143.543 116.233 144.19 113.186 144.19C110.14 144.19 107.518 143.543 105.319 142.25C103.121 140.956 101.425 139.091 100.232 136.655C99.0697 134.188 98.4887 131.225 98.4887 127.766C98.4887 124.397 99.0697 121.48 100.232 119.013C101.425 116.547 103.121 114.667 105.319 113.373C107.518 112.05 110.14 111.388 113.186 111.388ZM113.186 116.802C110.956 116.802 109.292 117.675 108.193 119.419C107.125 121.134 106.591 123.916 106.591 127.766C106.591 131.616 107.141 134.414 108.24 136.159C109.339 137.903 110.988 138.775 113.186 138.775C115.447 138.775 117.112 137.918 118.18 136.204C119.279 134.459 119.828 131.647 119.828 127.766C119.828 123.886 119.279 121.089 118.18 119.374C117.08 117.66 115.416 116.802 113.186 116.802Z" fill="black"/>
<path d="M30.1962 96.4985C34.8441 96.4985 38.4557 95.0698 41.0309 92.2122C43.6375 89.3546 44.9408 85.3239 44.9408 80.1202C44.9408 76.7212 44.3441 73.7884 43.1507 71.3219C41.9887 68.8553 40.2928 66.9603 38.0631 65.6368C35.8647 64.3434 33.2424 63.6967 30.1962 63.6967C27.1499 63.6967 24.5276 64.3434 22.3292 65.6368C20.1309 66.9302 18.435 68.7952 17.2416 71.2316C16.0796 73.6982 15.4987 76.661 15.4987 80.1202C15.4987 83.4891 16.0796 86.4068 17.2416 88.8733C18.435 91.3399 20.1309 93.2199 22.3292 94.5133C24.5276 95.8368 27.1499 96.4985 30.1962 96.4985ZM30.1962 91.0842C27.9664 91.0842 26.3019 90.2119 25.2028 88.4673C24.135 86.7527 23.6011 83.9704 23.6011 80.1202C23.6011 76.27 24.1507 73.4726 25.2499 71.728C26.3491 69.9833 27.9978 69.111 30.1962 69.111C32.4573 69.111 34.1218 69.9683 35.1895 71.6828C36.2887 73.4275 36.8383 76.2399 36.8383 80.1202C36.8383 84.0004 36.2887 86.7979 35.1895 88.5124C34.0904 90.2269 32.4259 91.0842 30.1962 91.0842Z" fill="black"/>
<path d="M66.3106 64.4637L64.6147 71.1865H55.099L53.4503 64.4637H45.442L55.2875 95.7315H64.6618L74.5073 64.4637H66.3106ZM56.418 76.5557H63.2957L59.8569 90.3623L56.418 76.5557Z" fill="black"/>
<path d="M89.6324 96.4985C94.2803 96.4985 97.8919 95.0698 100.467 92.2122C103.074 89.3546 104.377 85.3239 104.377 80.1202C104.377 76.7212 103.78 73.7884 102.587 71.3219C101.425 68.8553 99.7291 66.9603 97.4993 65.6368C95.301 64.3434 92.6787 63.6967 89.6324 63.6967C86.5861 63.6967 83.9638 64.3434 81.7655 65.6368C79.5671 66.9302 77.8713 68.7952 76.6779 71.2316C75.5159 73.6982 74.9349 76.661 74.9349 80.1202C74.9349 83.4891 75.5159 86.4068 76.6779 88.8733C77.8713 91.3399 79.5671 93.2199 81.7655 94.5133C83.9638 95.8368 86.5861 96.4985 89.6324 96.4985ZM89.6324 91.0842C87.4027 91.0842 85.7382 90.2119 84.639 88.4673C83.5713 86.7527 83.0374 83.9704 83.0374 80.1202C83.0374 76.27 83.587 73.4726 84.6861 71.728C85.7853 69.9833 87.4341 69.111 89.6324 69.111C91.8936 69.111 93.558 69.9683 94.6258 71.6828C95.725 73.4275 96.2746 76.2399 96.2746 80.1202C96.2746 84.0004 95.725 86.7979 94.6258 88.5124C93.5266 90.2269 91.8622 91.0842 89.6324 91.0842Z" fill="black"/>
</g>
<defs>
<filter id="filter0_d_226_11" x="8.78038" y="48.6569" width="123.189" height="117.232" filterUnits="userSpaceOnUse" color-interpolation-filters="sRGB">
<feFlood flood-opacity="0" result="BackgroundImageFix"/>
<feColorMatrix in="SourceAlpha" type="matrix" values="0 0 0 0 0 0 0 0 0 0 0 0 0 0 0 0 0 0 127 0" result="hardAlpha"/>
<feOffset dy="4.43925"/>
<feGaussianBlur stdDeviation="1.10981"/>
<feComposite in2="hardAlpha" operator="out"/>
<feColorMatrix type="matrix" values="0 0 0 0 0 0 0 0 0 0 0 0 0 0 0 0 0 0 0.1 0"/>
<feBlend mode="normal" in2="BackgroundImageFix" result="effect1_dropShadow_226_11"/>
<feBlend mode="normal" in="SourceGraphic" in2="effect1_dropShadow_226_11" result="shape"/>
</filter>
</defs>
</svg>
