<svg width="182" height="135" viewBox="0 0 182 135" fill="none" xmlns="http://www.w3.org/2000/svg">
<path opacity="0.75" d="M21 44C21 41.2386 23.2386 39 26 39L176.23 39C178.992 39 181.23 41.2386 181.23 44V130C181.23 132.761 178.992 135 176.23 135H26C23.2386 135 21 132.761 21 130L21 44Z" fill="#FFA800" fill-opacity="0.95"/>
<path d="M0 5C0 2.23858 2.23858 0 5 0L140.746 0C143.508 0 145.746 2.23858 145.746 5V100C145.746 102.761 143.508 105 140.746 105H5.00001C2.23858 105 0 102.761 0 100L0 5Z" fill="#F07C11" fill-opacity="0.8"/>
</svg>
