<svg width="24" height="24" viewBox="0 0 24 24" fill="none" xmlns="http://www.w3.org/2000/svg">
<path d="M1.8 24C1.32 24 0.9 23.775 0.54 23.325C0.18 22.875 0 22.35 0 21.75V2.25C0 1.65 0.18 1.125 0.54 0.675C0.9 0.225 1.32 0 1.8 0H22.2C22.68 0 23.1 0.225 23.46 0.675C23.82 1.125 24 1.65 24 2.25V21.75C24 22.35 23.82 22.875 23.46 23.325C23.1 23.775 22.68 24 22.2 24H1.8ZM22.2 4.3125L12.48 12.2625C12.4 12.3125 12.325 12.3562 12.255 12.3937C12.185 12.4312 12.1 12.45 12 12.45C11.9 12.45 11.815 12.4312 11.745 12.3937C11.675 12.3562 11.6 12.3125 11.52 12.2625L1.8 4.3125V21.75H22.2V4.3125ZM12 10.425L22.08 2.25H1.95L12 10.425ZM1.8 4.575V3.09375V3.1125V3.075V4.575Z" fill="url(#paint0_linear_76_138)"/>
<defs>
<linearGradient id="paint0_linear_76_138" x1="7.16406" y1="0" x2="34.4145" y2="0" gradientUnits="userSpaceOnUse">
<stop stop-color="#FFC700"/>
<stop offset="1" stop-color="#FF7A00" stop-opacity="0.88"/>
</linearGradient>
</defs>
</svg>
