<svg width="239" height="48" viewBox="0 0 239 48" fill="none" xmlns="http://www.w3.org/2000/svg">
<path d="M13.288 33.96C13.288 36.616 12.808 38.808 11.848 40.536C10.92 42.264 9.672 43.608 8.104 44.568C6.568 45.56 4.728 46.408 2.584 47.112L0.472 41.544C1.88 41 2.936 40.376 3.64 39.672C4.344 38.968 4.808 38.152 5.032 37.224C5.288 36.296 5.416 35.112 5.416 33.672V5.736H13.288V33.96ZM30.2504 12.696C34.1544 12.696 37.2104 13.896 39.4184 16.296C41.6264 18.664 42.7304 21.992 42.7304 26.28C42.7304 29 42.2184 31.384 41.1944 33.432C40.2024 35.448 38.7624 37.016 36.8744 38.136C35.0184 39.256 32.8104 39.816 30.2504 39.816C26.3784 39.816 23.3224 38.632 21.0824 36.264C18.8744 33.864 17.7704 30.52 17.7704 26.232C17.7704 23.512 18.2664 21.144 19.2584 19.128C20.2824 17.08 21.7224 15.496 23.5784 14.376C25.4664 13.256 27.6904 12.696 30.2504 12.696ZM30.2504 18.264C28.7144 18.264 27.5624 18.92 26.7944 20.232C26.0264 21.512 25.6424 23.512 25.6424 26.232C25.6424 29.016 26.0104 31.048 26.7464 32.328C27.5144 33.608 28.6824 34.248 30.2504 34.248C31.7864 34.248 32.9384 33.608 33.7064 32.328C34.4744 31.016 34.8584 29 34.8584 26.28C34.8584 23.496 34.4744 21.464 33.7064 20.184C32.9704 18.904 31.8184 18.264 30.2504 18.264ZM67.0289 31.608C67.0289 32.568 67.1569 33.272 67.4129 33.72C67.7009 34.168 68.1489 34.504 68.7569 34.728L67.1729 39.672C65.6049 39.544 64.3249 39.208 63.3329 38.664C62.3409 38.088 61.5729 37.192 61.0289 35.976C59.3649 38.536 56.8049 39.816 53.3489 39.816C50.8209 39.816 48.8049 39.08 47.3009 37.608C45.7969 36.136 45.0449 34.216 45.0449 31.848C45.0449 29.064 46.0689 26.936 48.1169 25.464C50.1649 23.992 53.1249 23.256 56.9969 23.256H59.5889V22.152C59.5889 20.648 59.2689 19.624 58.6289 19.08C57.9889 18.504 56.8689 18.216 55.2689 18.216C54.4369 18.216 53.4289 18.344 52.2449 18.6C51.0609 18.824 49.8449 19.144 48.5969 19.56L46.8689 14.568C48.4689 13.96 50.1009 13.496 51.7649 13.176C53.4609 12.856 55.0289 12.696 56.4689 12.696C60.1169 12.696 62.7889 13.448 64.4849 14.952C66.1809 16.456 67.0289 18.712 67.0289 21.72V31.608ZM55.5569 34.392C57.2849 34.392 58.6289 33.576 59.5889 31.944V27.432H57.7169C55.9889 27.432 54.6929 27.736 53.8289 28.344C52.9969 28.952 52.5809 29.896 52.5809 31.176C52.5809 32.2 52.8369 33 53.3489 33.576C53.8929 34.12 54.6289 34.392 55.5569 34.392ZM59.5889 8.52C58.8849 8.52 58.2769 8.408 57.7649 8.184C57.2529 7.96 56.6929 7.64 56.0849 7.224C55.2849 6.648 54.6289 6.36 54.1169 6.36C53.5729 6.36 53.1089 6.536 52.7249 6.888C52.3729 7.208 51.9889 7.736 51.5729 8.472L47.7809 6.648C48.4209 4.984 49.2689 3.624 50.3249 2.568C51.4129 1.512 52.6289 0.983997 53.9729 0.983997C54.7089 0.983997 55.3329 1.112 55.8449 1.368C56.3889 1.592 56.9809 1.912 57.6209 2.328C58.0689 2.616 58.4209 2.824 58.6769 2.952C58.9649 3.08 59.2529 3.144 59.5409 3.144C60.0529 3.144 60.4849 2.984 60.8369 2.664C61.2209 2.312 61.6209 1.768 62.0369 1.032L65.8289 2.904C65.1569 4.6 64.2769 5.96 63.1889 6.984C62.1329 8.008 60.9329 8.52 59.5889 8.52ZM84.1098 12.696C88.0138 12.696 91.0698 13.896 93.2778 16.296C95.4858 18.664 96.5898 21.992 96.5898 26.28C96.5898 29 96.0778 31.384 95.0538 33.432C94.0618 35.448 92.6218 37.016 90.7338 38.136C88.8778 39.256 86.6698 39.816 84.1098 39.816C80.2378 39.816 77.1818 38.632 74.9418 36.264C72.7338 33.864 71.6298 30.52 71.6298 26.232C71.6298 23.512 72.1258 21.144 73.1178 19.128C74.1418 17.08 75.5818 15.496 77.4378 14.376C79.3258 13.256 81.5498 12.696 84.1098 12.696ZM84.1098 18.264C82.5738 18.264 81.4218 18.92 80.6538 20.232C79.8858 21.512 79.5018 23.512 79.5018 26.232C79.5018 29.016 79.8698 31.048 80.6058 32.328C81.3738 33.608 82.5418 34.248 84.1098 34.248C85.6458 34.248 86.7978 33.608 87.5658 32.328C88.3338 31.016 88.7178 29 88.7178 26.28C88.7178 23.496 88.3338 21.464 87.5658 20.184C86.8298 18.904 85.6778 18.264 84.1098 18.264ZM137.548 5.736L128.284 39H118.492L108.892 5.736H117.196L123.532 32.856L129.484 5.736H137.548ZM147.451 13.512V39H139.867V13.512H147.451ZM143.611 0.0719976C144.923 0.0719976 145.995 0.487998 146.827 1.32C147.691 2.12 148.123 3.144 148.123 4.392C148.123 5.64 147.691 6.68 146.827 7.512C145.995 8.312 144.923 8.712 143.611 8.712C142.299 8.712 141.227 8.312 140.395 7.512C139.563 6.68 139.147 5.64 139.147 4.392C139.147 3.144 139.563 2.12 140.395 1.32C141.227 0.487998 142.299 0.0719976 143.611 0.0719976ZM164.454 12.696C166.214 12.696 167.798 12.952 169.206 13.464C170.614 13.976 171.942 14.76 173.19 15.816L169.926 20.328C168.326 19.112 166.71 18.504 165.078 18.504C163.382 18.504 162.102 19.128 161.238 20.376C160.374 21.624 159.942 23.64 159.942 26.424C159.942 29.112 160.374 31.016 161.238 32.136C162.102 33.256 163.35 33.816 164.982 33.816C165.846 33.816 166.63 33.688 167.334 33.432C168.038 33.144 168.886 32.696 169.878 32.088L173.19 36.792C170.662 38.808 167.798 39.816 164.598 39.816C162.006 39.816 159.766 39.272 157.878 38.184C155.99 37.064 154.534 35.512 153.51 33.528C152.486 31.512 151.974 29.16 151.974 26.472C151.974 23.784 152.486 21.4 153.51 19.32C154.534 17.24 155.99 15.624 157.878 14.472C159.766 13.288 161.958 12.696 164.454 12.696ZM192.366 37.8C191.438 38.44 190.35 38.936 189.102 39.288C187.886 39.64 186.67 39.816 185.454 39.816C179.886 39.784 177.102 36.712 177.102 30.6V18.792H173.502V13.512H177.102V7.992L184.686 7.128V13.512H190.542L189.726 18.792H184.686V30.504C184.686 31.688 184.878 32.536 185.262 33.048C185.646 33.56 186.254 33.816 187.086 33.816C187.95 33.816 188.862 33.544 189.822 33L192.366 37.8ZM205.094 12.696C208.998 12.696 212.054 13.896 214.262 16.296C216.47 18.664 217.574 21.992 217.574 26.28C217.574 29 217.062 31.384 216.038 33.432C215.046 35.448 213.606 37.016 211.718 38.136C209.862 39.256 207.654 39.816 205.094 39.816C201.222 39.816 198.166 38.632 195.926 36.264C193.718 33.864 192.614 30.52 192.614 26.232C192.614 23.512 193.11 21.144 194.102 19.128C195.126 17.08 196.566 15.496 198.422 14.376C200.31 13.256 202.534 12.696 205.094 12.696ZM205.094 18.264C203.558 18.264 202.406 18.92 201.638 20.232C200.87 21.512 200.486 23.512 200.486 26.232C200.486 29.016 200.854 31.048 201.59 32.328C202.358 33.608 203.526 34.248 205.094 34.248C206.63 34.248 207.782 33.608 208.55 32.328C209.318 31.016 209.702 29 209.702 26.28C209.702 23.496 209.318 21.464 208.55 20.184C207.814 18.904 206.662 18.264 205.094 18.264ZM235.909 12.792C236.837 12.792 237.685 12.904 238.453 13.128L237.253 20.472C236.293 20.248 235.525 20.136 234.949 20.136C233.445 20.136 232.293 20.664 231.493 21.72C230.725 22.744 230.117 24.296 229.669 26.376V39H222.085V13.512H228.709L229.333 18.456C229.909 16.696 230.773 15.32 231.925 14.328C233.109 13.304 234.437 12.792 235.909 12.792Z" fill="#141414"/>
</svg>
